<svg width="50" height="50" viewBox="0 0 50 50" fill="none" xmlns="http://www.w3.org/2000/svg">
<path fill-rule="evenodd" clip-rule="evenodd" d="M27.007 4.76206C26.7533 4.42186 26.3721 4.19948 25.9511 4.14605C25.5301 4.09261 25.1055 4.21272 24.7749 4.47876C20.8787 7.6138 18.1612 12.162 17.4025 17.3466C16.0347 16.355 14.8333 15.1469 13.8492 13.7725C13.5784 13.3944 13.1533 13.1566 12.6895 13.1236C12.2256 13.0907 11.7712 13.2661 11.4497 13.6021C8.23014 16.9675 6.25 21.5351 6.25 26.5618C6.25 36.9171 14.6447 45.3118 25 45.3118C35.3553 45.3118 43.75 36.9171 43.75 26.5618C43.75 18.9349 39.1964 12.375 32.6662 9.44595C30.3554 8.31784 28.4472 6.69342 27.007 4.76206ZM32.8125 29.6876C32.8125 34.0023 29.3147 37.5001 25 37.5001C20.6853 37.5001 17.1875 34.0023 17.1875 29.6876C17.1875 28.8348 17.3241 28.0139 17.5767 27.2457C18.886 28.2136 20.391 28.932 22.0215 29.3305C22.4712 26.4122 23.9303 23.827 26.031 21.9425C29.8584 22.4471 32.8125 25.7224 32.8125 29.6876Z" fill="url(#paint0_linear_5_3)"/>
<defs>
<linearGradient id="paint0_linear_5_3" x1="25" y1="4.13361" x2="25" y2="45.3118" gradientUnits="userSpaceOnUse">
<stop stop-color="#FF859F"/>
<stop offset="1" stop-color="#B00029"/>
</linearGradient>
</defs>
</svg>
