<svg width="24" height="24" viewBox="0 0 24 24" fill="none" xmlns="http://www.w3.org/2000/svg">
<path fill-rule="evenodd" clip-rule="evenodd" d="M9.40123 4.5034C10.5557 2.50229 13.4439 2.50229 14.5983 4.5034L21.9527 17.2509C23.1065 19.2509 21.6631 21.7501 19.3541 21.7501H4.64546C2.33649 21.7501 0.893061 19.2509 2.04691 17.2509L9.40123 4.5034ZM12 9.75C12.4142 9.75 12.75 10.0858 12.75 10.5V14.25C12.75 14.6642 12.4142 15 12 15C11.5858 15 11.25 14.6642 11.25 14.25V10.5C11.25 10.0858 11.5858 9.75 12 9.75ZM12 18C12.4142 18 12.75 17.6642 12.75 17.25C12.75 16.8358 12.4142 16.5 12 16.5C11.5858 16.5 11.25 16.8358 11.25 17.25C11.25 17.6642 11.5858 18 12 18Z" fill="#0F172A"/>
</svg>
